<svg width="38" height="38" fill="none" xmlns="http://www.w3.org/2000/svg"><path d="M35.875.25H2.125A1.877 1.877 0 00.25 2.125v27.5A1.877 1.877 0 002.125 31.5h12.91l-1.5 5H11.5v1.25h15V36.5h-2.035l-1.5-5h12.91a1.877 1.877 0 001.875-1.875v-27.5A1.877 1.877 0 0035.875.25zM23.16 36.5h-8.32l1.5-5h5.32l1.5 5zm13.34-10h-35V2.125a.626.626 0 01.625-.625h33.75a.626.626 0 01.625.625V26.5z" fill="#333"/><path d="M33.375 10.875h-8.232a.62.62 0 01-.442-.183l-1.768-1.768a1.863 1.863 0 00-1.326-.549h-6.982a1.877 1.877 0 00-1.875 1.875v13.125a1.877 1.877 0 001.875 1.875h18.75a1.877 1.877 0 001.875-1.875V12.75a1.877 1.877 0 00-1.875-1.875z" fill="#7FEBA1"/><path d="M19.81 14.183l-3.568 3.567 3.567 3.567.884-.884-2.683-2.683 2.683-2.683-.884-.884zm2.4 6.399l3.128-5.623 1.093.607-3.128 5.624-1.092-.608zm5.095-5.515l2.683 2.683-2.683 2.683.884.884 3.567-3.567-3.567-3.567-.884.884zM14.843 4l1.012 2.36 2.232.926 2.39-.955 1.235 1.236.884-.884-1.818-1.818-2.682 1.071-1.292-.535-1.137-2.651h-3.334L11.196 5.4l-1.292.536-2.682-1.071-2.357 2.357 1.071 2.682-.535 1.292-2.651 1.137v3.334l2.65 1.137.536 1.292-1.071 2.682 2.357 2.358 2.682-1.072 1.357.562.478-1.155-1.826-.757-2.39.955-1.192-1.193.955-2.389-.925-2.232L4 14.843v-1.686l2.36-1.012.926-2.232-.955-2.39 1.193-1.192 2.389.955 2.232-.925L13.157 4h1.686z" fill="#333"/><path d="M11.778 9.52l-.556-1.12a6.252 6.252 0 000 11.2l.556-1.12a5.002 5.002 0 010-8.96z" fill="#333"/></svg>