<svg width="38" height="38" fill="none" xmlns="http://www.w3.org/2000/svg"><path d="M1.317 19.183a.625.625 0 00-1.067.442v17.5a.625.625 0 00.625.625h17.5a.625.625 0 00.442-1.067l-17.5-17.5zM1.5 36.5V21.134L16.866 36.5H1.5z" fill="#333"/><path d="M4.625 34h5a.625.625 0 00.442-1.067l-5-5A.625.625 0 004 28.375v5a.625.625 0 00.625.625zm.625-4.116l2.866 2.866H5.25v-2.866zM7.125 2.75h1.25V4h-1.25V2.75zm2.5 0h1.25V4h-1.25V2.75zm2.5 0h1.25V4h-1.25V2.75z" fill="#333"/><path d="M13.122 11.555a.615.615 0 00-.372.57V19a.625.625 0 00.371.571l5.625 2.5a.622.622 0 00.508 0l5.625-2.5A.626.626 0 0025.25 19v-6.875a.615.615 0 00-.372-.57v-.001l-5.625-2.5a.626.626 0 00-.507 0l-5.625 2.5zm5.253 8.983L14 18.594v-5.507l4.375 1.944v5.507zM24 18.594l-4.375 1.944v-5.507L24 13.087v5.507zM18.375 24h1.25v3.125h-1.25V24zm0-19.375h1.25V7.75h-1.25V4.625zM8.102 10.818L8.64 9.69l2.617 1.25-.54 1.128-2.615-1.25zm18.625.113l2.616-1.25.538 1.128-2.616 1.25-.538-1.128zM8.102 20.93l2.616-1.25.539 1.127-2.617 1.25-.538-1.128z" fill="#7FEBA1"/><path d="M37.125 29h-3.75v-9.741l3.674-3.674a2.392 2.392 0 10-3.384-3.384l-.29.29V7.125a.625.625 0 00-.183-.442l-6.25-6.25A.626.626 0 0026.5.25H7.125a2.503 2.503 0 00-2.5 2.5v18.125h1.25V2.75a1.252 1.252 0 011.25-1.25h18.75v3.75a2.503 2.503 0 002.5 2.5h3.75v5.991l-9.817 9.817a.626.626 0 00-.17.32l-.626 3.124a.625.625 0 00.736.736l3.125-.625a.626.626 0 00.319-.171l6.433-6.433V29h-12.5a.624.624 0 00-.625.625V31.5h-3.125v1.25H19v1.875a.624.624 0 00.625.625h17.5a.624.624 0 00.625-.625v-5a.624.624 0 00-.625-.625zm-10-23.75V2.384L31.241 6.5h-2.866a1.251 1.251 0 01-1.25-1.25zm8.232 7.5a1.143 1.143 0 01.808 1.95l-.29.291-1.616-1.616.29-.29a1.134 1.134 0 01.808-.335zM23.134 25.268l.848.848-1.06.212.212-1.06zM36.5 34H20.25v-3.75h1.25v1.25h1.25v-1.25H24v1.25h1.25v-1.25h1.25v1.25h1.25v-1.25H29v1.25h1.25v-1.25h1.25v1.25h1.25v-1.25H34v1.25h1.25v-1.25h1.25V34z" fill="#333"/></svg>