<svg width="50" height="50" fill="none" xmlns="http://www.w3.org/2000/svg"><g clip-path="url(#clip0_2219_5894)"><path d="M40.836 31.667a3.334 3.334 0 003.333-3.334v-25A3.333 3.333 0 0040.836 0H9.169a3.333 3.333 0 00-3.333 3.333v25a3.334 3.334 0 003.333 3.334h11.667V35h-4.167a3.334 3.334 0 00-3.333 3.333v8.334A3.333 3.333 0 0016.669 50h16.667a3.334 3.334 0 003.333-3.333v-8.334A3.333 3.333 0 0033.336 35h-4.167v-3.333h11.667zm-31.667-30h31.667a1.667 1.667 0 011.667 1.666v3.334h-35V3.333a1.667 1.667 0 011.666-1.666zM9.17 30a1.667 1.667 0 01-1.666-1.667v-20h35v20A1.667 1.667 0 0140.836 30H29.169v-7.5h.984a1.507 1.507 0 001.35-.842 1.597 1.597 0 00-.146-1.682l-5.155-6.868a1.53 1.53 0 00-2.399 0L18.65 19.98a1.597 1.597 0 00.41 2.292c.239.148.513.228.794.229h.983V30H9.169z" fill="#333"/><rect x="13" y="35" width="24" height="15" rx="2" fill="#7FEBA1"/><path d="M21.527 40.37a.834.834 0 00-1.156-.23l-2.5 1.667a.834.834 0 000 1.386l2.5 1.667a.833.833 0 10.925-1.387l-1.462-.973 1.46-.973a.833.833 0 00.233-1.156zm6.949 4.26a.835.835 0 001.156.23l2.5-1.667a.834.834 0 000-1.386l-2.5-1.667a.833.833 0 10-.925 1.387l1.462.973-1.46.973a.834.834 0 00-.233 1.156zm-2.377-5.42a.833.833 0 00-1.054.527l-1.666 5a.833.833 0 001.165 1.01.835.835 0 00.418-.484l1.667-5a.834.834 0 00-.53-1.053zM9.997 5h.834a.833.833 0 000-1.667h-.834a.833.833 0 100 1.667zm4.173 0h.833a.833.833 0 000-1.667h-.834a.833.833 0 000 1.667zm4.163 0h.834a.833.833 0 000-1.667h-.834a.833.833 0 000 1.667zM36.67 5h3.333a.833.833 0 000-1.667h-3.334a.833.833 0 000 1.667z" fill="#333"/></g><defs><clipPath id="clip0_2219_5894"><path fill="#fff" d="M0 0h50v50H0z"/></clipPath></defs></svg>