<svg width="50" height="50" fill="none" xmlns="http://www.w3.org/2000/svg"><g clip-path="url(#clip0_2219_5822)"><path d="M31.897 12.994a2.444 2.444 0 002.441-2.441 2.444 2.444 0 00-2.441-2.442 2.444 2.444 0 00-2.441 2.442c0 .55.182 1.057.49 1.466l-4.011 5.606a2.433 2.433 0 00-2.422.533l-2.674-1.517a2.44 2.44 0 10-4.773 0l-2.674 1.517a2.432 2.432 0 00-1.662-.655 2.444 2.444 0 00-2.44 2.441 2.444 2.444 0 002.44 2.442 2.444 2.444 0 002.387-2.955l2.674-1.517a2.432 2.432 0 003.323 0l2.674 1.517a2.444 2.444 0 002.387 2.955 2.444 2.444 0 002.441-2.441c0-.55-.183-1.058-.49-1.467l4.01-5.605c.24.078.495.121.761.121zm0-3.418a.978.978 0 010 1.953.978.978 0 010-1.953zM11.73 20.921a.978.978 0 010-1.953.978.978 0 010 1.953zm6.722-3.817a.978.978 0 010-1.953.978.978 0 010 1.953zm6.723 3.817a.978.978 0 010-1.953.978.978 0 010 1.953z" fill="#333"/><path d="M40.898 36.813H2.072a.608.608 0 01-.607-.607V5.989c0-.334.272-.607.607-.607h3.453a.732.732 0 100-1.465H2.072C.929 3.917 0 4.847 0 5.99v30.217c0 1.142.93 2.072 2.072 2.072h5.05v1.612c0 .918.747 1.665 1.665 1.665h7.332l-3.451 6.738a.732.732 0 101.303.668l3.794-7.406h8.097l3.794 7.406a.732.732 0 101.303-.668l-3.45-6.738h7.33c.919 0 1.666-.747 1.666-1.665v-1.612h4.393a.732.732 0 100-1.465zM8.451 5.382h33.101c.334 0 .607.273.607.607v6.964a.732.732 0 101.465 0V5.99c0-1.142-.93-2.071-2.072-2.071H25.875v-1.44A1.84 1.84 0 0024.038.64h-4.455a1.84 1.84 0 00-1.838 1.838v1.44H8.451a.732.732 0 100 1.464zm10.76-2.904c0-.206.166-.373.372-.373h4.455c.205 0 .372.167.372.373v1.44h-5.2v-1.44z" fill="#333"/><path d="M10.248 26.13a.732.732 0 00-.732.733v6.472c0 .404.328.732.732.732h2.971a.732.732 0 00.733-.732v-6.472a.732.732 0 00-.733-.733h-2.971zm2.239 6.472H10.98v-5.007h1.507v5.007zm4.48-10.215a.732.732 0 00-.733.733v10.215c0 .404.328.732.733.732h2.971a.732.732 0 00.733-.732V23.12a.732.732 0 00-.733-.733h-2.971zm2.239 10.215h-1.507v-8.75h1.507v8.75zm4.48-6.472a.732.732 0 00-.733.733v6.472c0 .404.328.732.733.732h2.97a.732.732 0 00.733-.732v-6.472a.732.732 0 00-.732-.733h-2.971zm2.238 6.472h-1.506v-5.007h1.506v5.007zm4.488-2.15a.732.732 0 00-.732.733v2.15c0 .404.328.732.732.732h2.971a.732.732 0 100-1.465h-2.239v-1.417a.732.732 0 00-.732-.733z" fill="#333"/><path d="M49.625 37.502l-4.202-7.278a9.525 9.525 0 002.254-4.067 9.51 9.51 0 00-.956-7.264c-2.64-4.571-8.506-6.143-13.077-3.504-4.571 2.64-6.143 8.506-3.504 13.077a9.511 9.511 0 005.813 4.46 9.58 9.58 0 004.649.082l4.2 7.278a2.785 2.785 0 004.823-2.784zm-1.751 2.534a1.32 1.32 0 01-1.802-.482L42.03 32.55a9.725 9.725 0 002.284-1.32l4.042 7.003a1.32 1.32 0 01-.482 1.802z" fill="#7FEBA1"/><path d="M45.074 25.743a6.93 6.93 0 00-.346-5.02.732.732 0 10-1.325.623 5.47 5.47 0 01.273 3.963 5.473 5.473 0 01-2.498 3.124 5.453 5.453 0 01-4.165.549 5.453 5.453 0 01-3.333-2.558 5.495 5.495 0 012.01-7.498 5.481 5.481 0 016.059.377.732.732 0 10.883-1.168 6.943 6.943 0 00-7.675-.478 6.909 6.909 0 00-3.24 4.223 6.908 6.908 0 00.694 5.277 6.908 6.908 0 004.223 3.24 6.912 6.912 0 005.277-.695 6.931 6.931 0 003.163-3.959z" fill="#333"/></g><defs><clipPath id="clip0_2219_5822"><path fill="#fff" d="M0 0h50v50H0z"/></clipPath></defs></svg>