<svg width="40" height="40" fill="none" xmlns="http://www.w3.org/2000/svg"><g clip-path="url(#clip0_2219_5930)"><path d="M35.87 28.656l-5.24-5.24-.004-.004-1.115-1.114a9.996 9.996 0 00-2.135-1.627l-1.07-.608a8.82 8.82 0 01-1.059-.709l4.321-4.32a7.734 7.734 0 002.652.463 7.72 7.72 0 005.498-2.281 7.773 7.773 0 001.974-7.663.962.962 0 00-.69-.67.96.96 0 00-.925.253l-2.908 2.91-1.676.003-1.542-1.542.004-1.675 2.909-2.909A.959.959 0 0035.118 1a.962.962 0 00-.67-.69 7.766 7.766 0 00-7.711 2.021 7.737 7.737 0 00-2.223 5.376c-.01.943.148 1.862.458 2.721l-3.317 3.317a2.09 2.09 0 00-2.952 0l-1.215 1.216-9.492-9.492a.586.586 0 10-.83.828l9.493 9.492-.871.872L1.249 2.12l.871-.871 3.281 3.28a.586.586 0 10.829-.828L2.818.29a.988.988 0 00-1.395 0L.289 1.424a.987.987 0 000 1.395l14.67 14.67-1.214 1.214a2.09 2.09 0 00-.002 2.952l-3.316 3.316a7.683 7.683 0 00-1.744-.416.586.586 0 00-.136 1.164c1.51.176 2.922.88 3.974 1.983a6.5 6.5 0 011.793 4.58 6.572 6.572 0 01-1.886 4.566 6.596 6.596 0 01-6.212 1.806l2.828-2.829a.586.586 0 00.172-.413l.005-2.16a.585.585 0 00-.171-.416L7.163 30.95a.586.586 0 00-.414-.172h-.001l-2.161.005a.586.586 0 00-.413.172l-2.83 2.829a6.602 6.602 0 011.766-6.171 6.602 6.602 0 013.14-1.758.586.586 0 00-.272-1.14 7.774 7.774 0 00-3.696 2.07 7.772 7.772 0 00-1.974 7.662.962.962 0 00.69.67.959.959 0 00.924-.253l2.91-2.91 1.675-.003 1.542 1.542-.004 1.675-2.909 2.909a.959.959 0 00-.254.924.961.961 0 00.67.69 7.775 7.775 0 009.934-7.397 7.78 7.78 0 00-.458-2.721l4.326-4.326c.262.336.5.69.71 1.06l.607 1.069c.444.781.992 1.5 1.627 2.135l1.114 1.114.005.005 5.308 5.308 3.11 3.11a3.237 3.237 0 002.296.949c.831 0 1.663-.316 2.295-.949l2.623-2.622a3.251 3.251 0 000-4.591l-3.18-3.179zm-9.24-15.549a7.744 7.744 0 001.803 1.405l-4.064 4.063-2.355-2.356c.233-.429.306-.923.216-1.392l3.261-3.262a7.63 7.63 0 001.14 1.542zm-12.057 6.425l4.959-4.959a.914.914 0 011.296 0c.09.09.156.192.2.303l.001.001a.918.918 0 01-.201.993l-4.958 4.958a.918.918 0 01-.993.201h-.001a.918.918 0 01-.303-1.497zm-1.204 7.361a7.713 7.713 0 00-1.806-1.4l3.263-3.263a2.106 2.106 0 001.393-.216l2.356 2.355-4.066 4.066a7.647 7.647 0 00-1.14-1.542zm10.876 2.077a.583.583 0 01.416-.172c.157 0 .304.06.415.172l6.971 6.97a.583.583 0 010 .832.584.584 0 01-.83 0l-1.7-1.7-5.276-5.276a.588.588 0 01.004-.826zm13.975 6.627l-2.622 2.622a2.078 2.078 0 01-2.934 0l-.276-.275a1.757 1.757 0 00.488-2.832l-6.971-6.97a1.762 1.762 0 00-2.488 0 1.71 1.71 0 00-.342.486 8.818 8.818 0 01-1.385-1.831l-.608-1.07a10.04 10.04 0 00-1.627-2.136l-2.347-2.345 4.138-4.137 2.346 2.346a10.038 10.038 0 002.135 1.627l1.07.608a8.77 8.77 0 011.831 1.385 1.747 1.747 0 00-.486.341 1.762 1.762 0 000 2.489l3.788 3.788a.586.586 0 00.829-.828l-3.789-3.789a.588.588 0 01.827-.835l5.085 5.084 1.89 1.89a.583.583 0 010 .832.584.584 0 01-.83 0l-1.417-1.416a.586.586 0 10-.828.829l1.416 1.416c.332.332.774.515 1.244.515a1.748 1.748 0 001.587-1.003l.276.275a2.078 2.078 0 010 2.934z" fill="#333"/><path d="M14.572 19.532l4.959-4.959a.914.914 0 011.296 0c.09.09.156.192.2.303l.001.001a.918.918 0 01-.201.993l-4.958 4.958a.918.918 0 01-.993.201h-.001a.918.918 0 01-.303-1.497zm9.672 9.438a.583.583 0 01.832 0l6.97 6.97a.584.584 0 010 .832.584.584 0 01-.83 0l-1.7-1.7-5.276-5.276a.588.588 0 01.005-.826zm13.975 6.627l-2.622 2.622a2.078 2.078 0 01-2.934 0l-.276-.275a1.748 1.748 0 001.003-1.587c0-.47-.183-.913-.515-1.245l-6.97-6.97a1.762 1.762 0 00-2.49 0 1.75 1.75 0 00-.341.486 8.825 8.825 0 01-1.385-1.831l-.608-1.07a10.04 10.04 0 00-1.627-2.136l-2.346-2.345 4.137-4.137 2.346 2.346a10.036 10.036 0 002.136 1.627l1.07.608a8.79 8.79 0 011.83 1.385 1.747 1.747 0 00-.486.341 1.762 1.762 0 000 2.489l3.788 3.788a.586.586 0 00.829-.828l-3.789-3.789a.588.588 0 01.827-.835l5.085 5.084 1.89 1.89a.584.584 0 010 .832.584.584 0 01-.83 0l-1.417-1.416a.586.586 0 10-.828.829l1.416 1.416c.332.332.774.515 1.244.515a1.748 1.748 0 001.587-1.003l.276.275a2.078 2.078 0 010 2.934z" fill="#7FEBA1"/></g><defs><clipPath id="clip0_2219_5930"><path fill="#fff" d="M0 0h40v40H0z"/></clipPath></defs></svg>